<svg width="358" height="298" viewBox="0 0 358 298" fill="none" xmlns="http://www.w3.org/2000/svg">
<g clip-path="url(#clip0)">
<path opacity="0.1" d="M254.436 297.997C274.635 297.997 291.009 296.385 291.009 294.396C291.009 292.408 274.635 290.796 254.436 290.796C234.238 290.796 217.863 292.408 217.863 294.396C217.863 296.385 234.238 297.997 254.436 297.997Z" fill="#6C63FF"/>
<path d="M156.738 4.35883C172.845 -1.62054 192.455 3.52193 209.201 11.022C261.796 34.5833 300.113 79.3093 330.556 124.876C341.579 141.375 352.049 158.601 356.192 177.02C364.63 214.509 342.624 253.32 305.198 266.921C292.471 271.55 278.489 273.448 264.485 274.506C239.584 276.39 213.801 275.642 189.099 268.666C171.483 263.68 154.819 255.66 138.836 246.799C94.2004 222.041 53.4372 189.89 24.0853 150.617C11.212 133.391 0.321331 113.971 0.00752137 94.0957C-0.306289 74.2203 12.6633 54.2487 34.0024 50.869C42.8247 49.473 52.157 50.926 61.2611 52.4217C74.6657 54.6262 88.2523 56.9445 101.504 55.983C115.194 54.9823 132.999 49.6404 135.495 36.5883C138.137 22.5747 140.651 10.3311 156.738 4.35883Z" fill="url(#paint0_linear)"/>
<path d="M87.0176 273.794C87.0176 273.794 104.227 272.758 102.198 284.802C102.198 284.802 102.601 286.939 100.668 287.897C100.668 287.897 100.64 287.003 98.9032 287.306C98.2863 287.411 97.6589 287.442 97.0346 287.398C96.1902 287.34 95.3879 287.008 94.7487 286.454C94.7487 286.454 89.9097 284.46 88.0304 276.561C88.0304 276.561 86.6361 274.841 86.6931 274.396L89.5959 275.635C89.5959 275.635 88.6045 277.729 89.3855 279.467C89.3855 279.467 89.4782 275.714 90.038 275.799C90.1486 275.817 91.5465 276.511 91.5465 276.511C91.5465 276.511 89.8383 280.154 91.1257 282.804C91.1257 282.804 90.6371 278.313 92.0778 276.775L94.1247 277.968C94.1247 277.968 92.1277 281.732 93.4828 284.802C93.4828 284.802 93.1262 280.09 94.5526 278.256L96.4069 279.681C96.4069 279.681 94.5312 283.392 95.6759 285.942C95.6759 285.942 95.8221 280.454 96.8063 280.041C96.8063 280.041 98.4289 281.465 98.6749 282.056C98.6749 282.056 97.3912 284.749 98.1864 286.169C98.1864 286.169 98.6749 282.516 99.0779 282.498C99.0779 282.498 100.69 284.919 100.861 286.579C100.861 286.579 100.79 284.111 99.4666 282.266C99.4666 282.266 101.029 282.533 101.941 283.545C101.941 283.545 101.688 281.832 99.0708 281.682C99.0708 281.682 97.7371 279.848 97.3769 279.734C97.3769 279.734 99.9837 279.517 101.563 280.219C101.563 280.219 100.173 278.602 96.899 279.335L95.0697 277.847C95.0697 277.847 98.5038 277.377 99.9551 277.897C99.9551 277.897 98.2827 276.472 94.5776 277.508L92.5877 276.319C92.5877 276.319 95.5119 275.689 97.2557 275.917C97.2557 275.917 95.4156 274.927 92.0029 275.998L90.5765 275.361C90.5765 275.361 92.7161 274.941 93.3473 274.873C93.9785 274.805 94.007 274.635 94.007 274.635C92.6496 274.407 91.2557 274.561 89.981 275.08C89.981 275.08 86.9641 274.001 87.0176 273.794Z" fill="#FF6A48"/>
<path opacity="0.1" d="M98.871 291.002C105.599 291.002 111.053 290.082 111.053 288.947C111.053 287.812 105.599 286.892 98.871 286.892C92.1433 286.892 86.6895 287.812 86.6895 288.947C86.6895 290.082 92.1433 291.002 98.871 291.002Z" fill="#6C63FF"/>
<path d="M63.9632 265.692C63.9632 265.692 73.6663 265.108 72.5217 271.9C72.5821 272.244 72.5314 272.598 72.377 272.912C72.2225 273.226 71.9722 273.482 71.6622 273.645C71.6622 273.645 71.6444 273.142 70.6673 273.313C70.32 273.373 69.9667 273.389 69.6153 273.363C69.1381 273.334 68.6841 273.147 68.3244 272.833C68.3244 272.833 65.6 271.704 64.5302 267.252C64.5302 267.252 63.7457 266.28 63.7742 266.031L65.4146 266.743C65.4146 266.743 64.8547 267.925 65.2933 268.905C65.2933 268.905 65.3468 266.786 65.6499 266.835C65.7141 266.835 66.5022 267.245 66.5022 267.245C66.5022 267.245 65.5394 269.3 66.2668 270.806C66.2668 270.806 65.9887 268.274 66.8017 267.405L67.9536 268.078C67.9536 268.078 66.8303 270.215 67.597 271.932C67.597 271.932 67.4008 269.275 68.1996 268.242L69.2445 269.054C69.2445 269.054 68.1747 271.145 68.8344 272.583C68.8344 272.583 68.9164 269.489 69.4727 269.257C69.4727 269.257 70.3856 270.062 70.5247 270.393C70.5247 270.393 69.8115 271.91 70.2501 272.712C70.2501 272.712 70.5247 270.653 70.7529 270.642C70.7529 270.642 71.6622 272.006 71.755 272.943C71.7095 272.078 71.4391 271.24 70.9704 270.511C71.4951 270.606 71.9799 270.854 72.3647 271.223C72.3647 271.223 72.2257 270.258 70.7458 270.172C70.7458 270.172 69.9933 269.136 69.7936 269.075C69.7936 269.075 71.2628 268.951 72.1544 269.346C72.1544 269.346 71.3698 268.434 69.5226 268.848L68.492 268.007C68.492 268.007 70.4284 267.744 71.2486 268.036C71.2486 268.036 70.3036 267.231 68.2139 267.818L67.0942 267.145C67.9568 266.957 68.8402 266.882 69.7223 266.921C69.7223 266.921 68.6882 266.362 66.7625 266.967L65.9602 266.611C65.9602 266.611 67.1691 266.372 67.5221 266.337C67.8751 266.301 67.8965 266.202 67.8965 266.202C67.1305 266.075 66.3442 266.162 65.625 266.454C65.625 266.454 63.9347 265.81 63.9632 265.692Z" fill="#FF6A48"/>
<path opacity="0.1" d="M70.6475 275.393C74.4406 275.393 77.5156 274.873 77.5156 274.232C77.5156 273.591 74.4406 273.071 70.6475 273.071C66.8543 273.071 63.7793 273.591 63.7793 274.232C63.7793 274.873 66.8543 275.393 70.6475 275.393Z" fill="#6C63FF"/>
<path d="M302.676 272.22C302.676 272.22 314.39 271.508 313.018 279.699C313.088 280.115 313.025 280.542 312.838 280.921C312.651 281.299 312.35 281.609 311.976 281.807C311.976 281.807 311.955 281.198 310.775 281.405C310.354 281.476 309.927 281.496 309.501 281.465C308.927 281.428 308.38 281.203 307.947 280.824C307.947 280.824 304.652 279.467 303.371 274.09C303.371 274.09 302.423 272.918 302.462 272.619L304.438 273.459C304.438 273.459 303.764 274.884 304.295 276.07C304.295 276.07 304.359 273.513 304.737 273.577C304.816 273.577 305.764 274.068 305.764 274.068C305.764 274.068 304.602 276.561 305.479 278.342C305.479 278.342 305.147 275.286 306.128 274.239L307.519 275.048C307.519 275.048 306.16 277.612 307.084 279.702C307.084 279.702 306.845 276.497 307.797 275.247L309.059 276.23C309.059 276.23 307.783 278.755 308.56 280.504C308.56 280.504 308.663 276.771 309.334 276.486C309.334 276.486 310.436 277.459 310.603 277.858C310.603 277.858 309.73 279.692 310.272 280.66C310.272 280.66 310.603 278.167 310.878 278.167C310.878 278.167 311.976 279.816 312.09 280.945C312.037 279.901 311.711 278.89 311.145 278.011C311.779 278.131 312.364 278.433 312.829 278.88C312.829 278.88 312.657 277.715 310.871 277.612C310.871 277.612 309.965 276.362 309.723 276.287C309.723 276.287 311.506 276.137 312.575 276.615C312.575 276.615 311.627 275.518 309.398 276.016L308.154 275.001C308.154 275.001 310.489 274.681 311.481 275.033C311.481 275.033 310.339 274.061 307.818 274.77L306.463 273.962C306.463 273.962 308.453 273.534 309.641 273.687C309.641 273.687 308.389 273.014 306.075 273.744L305.105 273.31C305.105 273.31 306.563 273.021 306.991 272.979C307.419 272.936 307.44 272.815 307.44 272.815C306.517 272.661 305.569 272.766 304.702 273.117C304.702 273.117 302.64 272.355 302.676 272.22Z" fill="#FF6A48"/>
<path opacity="0.1" d="M310.744 283.937C315.323 283.937 319.035 283.31 319.035 282.537C319.035 281.764 315.323 281.138 310.744 281.138C306.165 281.138 302.453 281.764 302.453 282.537C302.453 283.31 306.165 283.937 310.744 283.937Z" fill="#6C63FF"/>
<path d="M291.005 185.763C290.78 184.509 290.65 183.24 290.616 181.967C290.616 180.439 288.537 179.085 288.537 179.085C288.537 179.085 287.254 176.119 286.398 175.681C285.542 175.243 282.9 171.361 282.9 171.361C282.869 170.595 282.59 169.86 282.104 169.267C281.313 168.228 280.59 167.138 279.94 166.005C279.583 165.57 279.761 165.264 279.227 162.732C279.198 162.6 279.166 162.472 279.127 162.351C279.127 162.294 279.091 162.244 279.07 162.187C279.637 161.619 280.033 160.902 280.211 160.119C280.39 159.336 280.344 158.519 280.079 157.761C279.983 157.459 279.808 157.189 279.572 156.977C278.97 156.486 278.007 156.689 277.386 156.222L278.046 153.309C278.203 152.597 278.285 151.696 277.661 151.311C277.427 151.2 277.18 151.118 276.926 151.065C275.857 150.709 275.236 149.58 274.958 148.494C274.691 147.448 274.618 146.361 274.744 145.289C274.865 144.256 275.168 143.252 275.279 142.216C275.48 140.299 275.018 138.371 273.97 136.753C273.563 136.054 272.962 135.488 272.241 135.122C271.581 134.826 270.814 134.765 270.197 134.409C268.871 133.565 268.939 131.56 267.879 130.41C266.82 129.26 264.945 129.263 263.401 129.659C261.856 130.054 260.319 130.727 258.736 130.56C257.716 130.446 256.761 129.983 255.737 129.876C255.444 129.848 255.149 129.861 254.86 129.915V129.883C254.104 130.018 253.409 130.439 253.23 131.154C253.19 131.325 253.173 131.5 253.18 131.674C253.18 132.091 253.28 132.525 253.287 132.924C253.3 133.083 253.282 133.242 253.232 133.393C253.182 133.544 253.103 133.684 252.998 133.804C252.795 134.021 252.496 134.135 252.285 134.359C252.199 134.445 252.132 134.548 252.087 134.66C252.043 134.773 252.021 134.894 252.025 135.015C252.025 135.649 252.817 136.208 253.348 136.464H253.369C253.227 136.607 253.084 136.756 252.952 136.909C251.429 138.627 250.589 140.843 250.591 143.138C250.604 144.991 251.159 146.801 252.188 148.343C253.217 149.886 254.675 151.094 256.383 151.82L256.308 152.052C256.158 152.51 255.983 152.959 255.784 153.398C255.415 153.274 255.023 153.232 254.636 153.275C254.249 153.318 253.877 153.445 253.544 153.647C252.524 154.36 250.531 154.303 249.999 154.171C249.468 154.039 243.937 153.341 243.491 153.516C243.046 153.69 242.165 152.907 241.591 153.954C241.017 155.001 240.749 155.567 240.164 155.83C239.58 156.094 238.57 156.92 238.706 157.095C238.841 157.269 237.244 158.316 237.244 158.316C237.244 158.316 235.871 159.741 235.076 159.929C234.28 160.118 232.597 161.197 232.597 161.197L230.647 162.721C230.647 162.721 229.188 162.942 229.63 161.938C230.072 160.934 228.832 159.669 228.832 159.669C228.832 159.669 226.353 154.652 226.353 153.615C226.353 152.579 224.317 148.159 224.317 148.159L224.067 148.134L223.953 147.81C223.579 146.76 223.094 145.471 222.723 144.716C222.01 143.273 221.571 143.124 221.571 143.124C221.571 143.124 212.984 136.685 207.407 138.647C201.83 140.61 217.588 146.457 219.004 147.07C219.499 147.283 219.856 147.974 220.105 148.783C218.849 149.388 217.792 150.338 217.057 151.521C217.057 151.521 220.466 159.068 220.555 160.944C220.644 162.821 222.901 168.067 222.901 168.067C222.901 168.067 223.743 171.952 228.3 171.731C228.3 171.731 234.587 172.885 235.96 171.731C237.333 170.578 238.57 169.673 239.237 169.541C239.728 169.38 240.159 169.076 240.475 168.669C240.475 168.669 238.396 181.756 237.376 182.892C236.356 184.029 227.344 198.722 230.579 201.351C233.14 203.331 235.848 205.117 238.677 206.692C238.952 206.828 239.776 205.457 240.952 204.484C240.952 204.73 240.952 204.979 240.952 205.243C240.974 210.471 241.666 218.42 242.621 220.2C244.048 222.818 243.463 227.878 243.463 227.878C244.213 228.231 245.027 228.426 245.856 228.452C245.898 228.623 245.948 228.808 245.995 228.986C246.776 231.931 248.042 236.486 248.687 237.697C249.661 239.531 250.367 245.336 250.367 245.336C250.367 245.336 250.944 251.034 250.723 251.835C250.638 252.138 251.012 254.51 251.601 257.533C251.244 261.625 250.566 269.513 250.452 272.366C250.452 272.419 250.452 272.473 250.452 272.523V272.572C250.454 272.604 250.454 272.637 250.452 272.669C250.452 272.733 250.452 272.79 250.452 272.843C250.441 273.023 250.448 273.203 250.474 273.381C250.518 273.652 250.497 273.931 250.413 274.193C250.161 274.981 249.84 275.746 249.454 276.479C249.291 276.839 249.148 277.208 249.026 277.583C248.669 277.74 248.234 278.121 247.992 279.05C247.55 280.753 246.886 285.461 246.886 285.461C246.886 285.461 246.619 288.342 246.091 288.997C245.563 289.652 245.021 293.751 248.791 294.275C252.56 294.798 254.189 292.28 254.189 292.28L254.058 280.856V280.835C254.134 280.738 254.199 280.635 254.254 280.525V280.496C254.279 280.443 254.307 280.386 254.332 280.322L254.364 280.236L254.421 280.097C254.419 280.081 254.419 280.064 254.421 280.047C254.787 278.953 254.897 277.79 254.742 276.646V276.589V276.5C254.742 276.472 254.742 276.44 254.742 276.411V276.233C254.742 276.212 254.742 276.187 254.742 276.166C254.742 276.09 254.749 276.011 254.764 275.931C254.764 275.931 254.764 275.902 254.764 275.888L254.785 275.749V275.688C254.785 275.642 254.785 275.596 254.814 275.546C254.812 275.534 254.812 275.522 254.814 275.51C254.849 275.347 254.892 275.154 254.938 274.998V274.958L254.992 274.787C255.045 274.606 255.106 274.431 255.17 274.239V274.203C255.17 274.146 255.209 274.089 255.231 274.036V274.015C255.295 273.84 255.363 273.659 255.427 273.509L255.445 273.463L255.502 273.32L255.52 273.277L255.655 272.961L256.7 276.184C256.7 276.184 257.278 278.584 256.967 279.15C256.657 279.716 257.324 282.074 257.763 282.117L257.353 285.083C257.131 286.719 256.999 288.365 256.957 290.015C256.928 290.204 256.9 290.372 256.878 290.486C256.593 292.006 257.278 294.364 257.278 294.364C260.772 298.491 264.937 294.684 264.937 294.684C264.937 294.684 265.422 292.501 264.937 292.067C264.452 291.632 264.67 290.058 264.67 290.058C264.67 290.058 264.891 286.173 264.934 283.338C264.977 280.503 262.612 277.996 262.612 277.996L262.48 278.114C262.049 277.003 261.557 275.706 261.66 275.126C261.839 274.122 261.172 263.52 261.172 263.52C261.418 260.677 261.471 257.822 261.329 254.973C261.386 254.492 261.439 254.018 261.493 253.548C261.76 251.269 261.978 249.321 262.063 248.299V248.178C262.085 247.903 262.095 247.708 262.092 247.615C262.092 247.259 262.092 246.853 262.127 246.408C262.209 245.183 262.402 243.819 262.402 243.819L263.329 238.188C263.329 238.188 264.042 235.439 265.059 233.915L265.18 233.722C265.219 233.655 265.258 233.58 265.301 233.502L265.319 233.47C265.358 233.395 265.401 233.316 265.44 233.235L265.458 233.203C265.601 232.921 265.754 232.597 265.915 232.241C265.915 232.212 265.94 232.188 265.95 232.159L266.071 231.888C266.071 231.853 266.1 231.817 266.118 231.782C266.136 231.746 266.193 231.6 266.232 231.511C266.25 231.475 266.265 231.438 266.278 231.401C266.325 231.294 266.375 231.183 266.421 231.069L266.489 230.906C266.521 230.824 266.556 230.742 266.592 230.66L266.678 230.443C266.703 230.389 266.724 230.336 266.745 230.282L266.842 230.037C266.842 230.001 266.874 229.962 266.888 229.926C267.141 229.296 267.384 228.673 267.601 228.106C267.669 227.928 267.737 227.75 267.797 227.594C270.065 227.732 271.606 227.857 271.606 227.857C271.606 227.857 272.319 222.754 272.091 219.395C271.941 217.102 272.369 214.217 272.651 212.629C272.683 212.455 272.711 212.298 272.74 212.155L272.801 212.205C273.91 213.078 274.705 210.197 274.705 210.197C274.705 210.197 274.405 207.508 273.992 204.249L273.949 203.925C274.588 204.061 275.234 204.16 275.885 204.221C275.885 204.221 276.242 204.189 276.73 204.128C278.082 204.91 279.508 205.554 280.988 206.051L283.345 201.707C283.788 200.806 284.307 199.945 284.897 199.132C285.61 198.259 288.127 195.467 288.085 194.944C288.042 194.42 288.926 191.407 289.81 190.054C290.695 188.701 291.048 185.98 291.005 185.763ZM281.177 189.078C280.246 189.47 279.362 191.653 279.319 192.308C279.276 192.964 278.299 195.841 277.283 196.19C276.345 196.511 274.555 198.156 274.27 198.42C273.977 198.445 273.646 198.484 273.3 198.541C272.911 195.788 272.526 193.509 272.28 193.049C271.567 191.739 273.061 187.551 273.061 187.551C273.061 187.551 273.207 183.32 274.131 182.316C275.054 181.311 274.844 178.779 274.844 178.779C274.844 178.779 275.065 177.732 275.154 177.255C275.243 176.778 276.47 177.255 276.481 177.255C276.481 177.255 278.87 178.562 279.227 180.524C279.583 182.486 282.193 185.891 282.193 185.891C282.193 185.891 281.794 187.07 282.193 187.672C282.593 188.274 282.108 188.687 281.177 189.078Z" fill="url(#paint1_linear)"/>
<path d="M217.156 151.789C217.883 150.591 218.947 149.634 220.216 149.038C221.484 148.441 222.901 148.231 224.288 148.434V153.53H221.189L218.765 152.918L217.156 151.789Z" fill="#4C4981"/>
<path opacity="0.1" d="M217.156 151.789C217.883 150.591 218.947 149.634 220.216 149.038C221.484 148.441 222.901 148.231 224.288 148.434V153.53H221.189L218.765 152.918L217.156 151.789Z" fill="black"/>
<path d="M224.521 149.783L220.723 152.44C220.723 152.44 220.691 151.909 220.595 151.183C220.406 149.808 219.981 147.746 219.065 147.347C217.67 146.735 202.148 140.902 207.653 138.939C213.159 136.977 221.607 143.409 221.607 143.409C221.607 143.409 222.042 143.558 222.738 144.994C223.094 145.748 223.583 147.034 223.95 148.085C224.289 149.032 224.521 149.783 224.521 149.783Z" fill="#AE6E79"/>
<path d="M254.86 153.875L255.291 153.672L256.504 155.054L255.513 157.166L253.822 156.489L254.215 154.801L254.86 153.875Z" fill="#4C4981"/>
<path d="M249.116 277.562C249.116 277.562 248.025 277.434 247.59 279.133C247.154 280.831 246.498 285.543 246.498 285.543C246.498 285.543 246.238 288.417 245.714 289.072C245.19 289.727 244.669 293.819 248.374 294.339C252.079 294.859 253.695 292.348 253.695 292.348L253.563 280.927L249.116 277.562Z" fill="#444053"/>
<path d="M262.046 278.075C262.046 278.075 264.378 280.568 264.336 283.395C264.293 286.223 264.072 290.101 264.072 290.101C264.072 290.101 263.858 291.672 264.336 292.106C264.814 292.541 264.336 294.72 264.336 294.72C264.336 294.72 260.235 298.52 256.79 294.4C256.79 294.4 256.12 292.046 256.398 290.528C256.676 289.011 257.453 282.191 257.453 282.191L262.046 278.075Z" fill="#444053"/>
<path d="M267.822 225.998C267.822 225.998 265.468 232.572 264.463 234.096C263.457 235.621 262.765 238.37 262.765 238.37L261.849 243.986C261.67 245.242 261.568 246.507 261.542 247.775C261.585 249.04 259.274 267.458 259.274 267.458L255.612 272.12C255.612 272.12 254 275.386 254.26 276.75C254.521 278.114 254.086 280.279 253.547 280.931C253.547 280.931 253.462 285.204 253.33 286.155C253.198 287.106 253.811 289.816 253.33 290.293C252.848 290.771 246.44 290.557 246.265 289.77C246.091 288.983 247.05 285.197 247.05 285.197L247.617 281.54C247.617 281.54 248.751 279.538 248.491 278.883C248.23 278.228 248.968 276.707 249.011 276.575C249.054 276.444 250.234 274.31 250.017 273.484C249.799 272.658 251.39 255.087 251.39 255.087L255.879 223.601L267.822 225.998Z" fill="#AE6E79"/>
<path opacity="0.1" d="M267.822 225.998C267.822 225.998 267.465 226.988 266.977 228.288C266.199 230.34 265.08 233.164 264.463 234.097C263.461 235.621 262.762 238.37 262.762 238.37L261.845 243.99C261.668 245.246 261.567 246.511 261.542 247.779C261.542 248.278 261.207 251.458 260.779 255.123C260.119 260.724 259.274 267.462 259.274 267.462L255.612 272.124C255.612 272.124 255.427 272.48 255.195 273.043C254.735 274.111 254.086 275.846 254.26 276.739C254.521 278.089 254.086 280.265 253.547 280.92C253.547 280.92 253.458 285.194 253.33 286.145C253.201 287.096 253.811 289.802 253.33 290.283C252.848 290.764 246.44 290.546 246.265 289.763C246.091 288.98 247.05 285.19 247.05 285.19L247.617 281.529C247.617 281.529 248.751 279.528 248.487 278.873C248.223 278.217 248.968 276.697 249.011 276.565C249.054 276.433 250.234 274.3 250.017 273.474C249.849 272.843 250.73 262.526 251.14 257.633C251.279 256.095 251.368 255.094 251.368 255.094L255.23 228.007L255.544 225.824L255.858 223.609L267.822 225.998Z" fill="black"/>
<path d="M263.9 291.493C263.94 291.974 257.749 292.672 256.865 292.149C255.98 291.625 256.865 285.137 256.865 285.137L257.268 282.177C256.836 282.131 256.18 279.78 256.483 279.214C256.786 278.648 256.223 276.255 256.223 276.255L255.196 273.05L254.568 271.087C253.548 268.84 252.072 262.43 251.155 257.644C250.578 254.638 250.21 252.27 250.292 251.967C250.51 251.183 249.936 245.478 249.936 245.478C249.936 245.478 249.223 239.684 248.281 237.857C247.643 236.646 246.398 232.099 245.628 229.164C245.236 227.658 244.965 226.575 244.965 226.575C244.965 226.575 251.555 226.023 255.552 225.831C257.389 225.742 258.68 225.731 258.53 225.881C258.38 226.03 258.341 226.828 258.348 227.982C258.366 230.97 258.783 236.226 259.225 237.64C259.835 239.599 260.445 245.475 260.185 246.044C259.924 246.614 260.01 250.4 260.01 250.4C260.459 251.938 260.718 253.525 260.78 255.126C260.92 257.962 260.87 260.804 260.63 263.634C260.63 263.634 261.283 274.218 261.108 275.218C260.933 276.219 262.503 279.357 262.503 279.966C262.503 280.575 262.938 284.713 262.938 284.713C262.938 284.713 263.872 291.016 263.9 291.493Z" fill="#AE6E79"/>
<path d="M267.342 164.285L266.593 165.093L266.105 165.62L263.252 168.683L255.881 169.513L251.958 168.466L250.988 168.206C250.988 168.206 250.988 166.24 251.163 163.883C251.413 160.859 252.008 157.187 253.431 156.187C254.143 155.63 254.712 154.91 255.089 154.089C255.374 153.523 255.612 152.934 255.802 152.33C255.831 152.251 255.852 152.177 255.877 152.098C256.198 151.043 256.43 149.962 256.569 148.868C256.569 148.868 257.511 148.348 258.819 147.743C262.232 146.151 268.127 143.954 266.076 148.868C265.775 149.588 265.518 150.325 265.306 151.076C265.274 151.187 265.245 151.297 265.22 151.404C264.536 154.139 264.988 155.798 265.498 156.714C265.585 156.872 265.684 157.023 265.794 157.166C265.934 157.357 266.101 157.526 266.29 157.668L267.139 163.049L267.21 163.494L267.342 164.285Z" fill="#AE6E79"/>
<path opacity="0.1" d="M266.078 149.132C265.69 150.065 266.267 148.369 266.078 149.132C264.524 150.236 260.861 153.38 258.804 153.38C257.413 153.38 256.996 153.127 255.805 152.59C256.165 151.463 256.422 150.305 256.571 149.132C256.571 149.132 268.913 142.337 266.078 149.132Z" fill="black"/>
<path d="M269.221 143.409C269.219 145.754 268.349 148.016 266.777 149.759C265.206 151.502 263.044 152.603 260.709 152.85C260.381 152.882 260.049 152.903 259.714 152.903C257.834 152.903 255.996 152.346 254.432 151.303C252.869 150.26 251.65 148.777 250.931 147.042C250.211 145.307 250.023 143.398 250.39 141.557C250.757 139.715 251.662 138.023 252.992 136.695C254.321 135.368 256.015 134.463 257.859 134.097C259.703 133.731 261.615 133.919 263.352 134.637C265.089 135.356 266.574 136.573 267.619 138.134C268.663 139.695 269.221 141.531 269.221 143.409Z" fill="#AE6E79"/>
<path opacity="0.1" d="M270.571 185.496L269.216 189.025C269.216 189.025 268.114 189.072 266.395 189.125C260.593 189.31 247.809 189.545 247.239 188.057C247.111 187.679 247.043 187.284 247.039 186.885C246.964 184.617 248.023 181.134 248.023 181.134C248.023 181.134 248.633 174.164 248.633 173.861C248.633 173.559 248.109 168.676 248.109 168.676L249.157 164.759L252.078 162.711C252.078 162.711 253.386 164.716 254.171 164.887C254.956 165.058 256.004 166.023 256.004 166.023C256.004 166.023 258.575 167.59 259.406 166.718C260.237 165.845 266.688 162.013 266.688 162.013L270.09 165.76L270.571 185.496Z" fill="black"/>
<path d="M270.572 186.037L269.217 189.563C269.217 189.563 268.115 189.613 266.396 189.666H266.229C265.487 189.691 264.638 189.716 263.732 189.734C259.122 189.841 252.771 189.869 249.451 189.378C248.202 189.2 247.386 188.943 247.25 188.594C247.175 188.384 247.123 188.167 247.093 187.946C247.072 187.782 247.058 187.59 247.051 187.422C246.976 185.154 248.035 181.671 248.035 181.671C248.035 181.671 248.645 174.702 248.645 174.399C248.645 174.096 248.12 169.214 248.12 169.214L249.169 165.296L251.177 163.893L252.089 163.252C252.397 163.711 252.731 164.151 253.092 164.57C253.373 164.947 253.749 165.243 254.183 165.428C254.971 165.603 256.016 166.564 256.016 166.564C256.016 166.564 258.587 168.131 259.418 167.259C260.049 166.593 263.971 164.196 265.783 163.103C266.339 162.764 266.699 162.554 266.699 162.554L267.156 163.06L270.101 166.301L270.572 186.037Z" fill="white"/>
<path opacity="0.1" d="M224.52 149.783L220.722 152.44C220.722 152.44 220.69 151.91 220.594 151.183C222.469 150.392 223.611 148.644 223.939 148.085C224.288 149.032 224.52 149.783 224.52 149.783Z" fill="black"/>
<path d="M237.864 158.801L237.037 158.58C237.037 158.58 235.682 160.004 234.897 160.193C234.113 160.382 232.458 161.454 232.458 161.454L230.536 162.978C230.536 162.978 229.109 163.199 229.534 162.195C229.958 161.19 228.749 159.93 228.749 159.93C228.749 159.93 226.307 154.923 226.307 153.876C226.307 152.829 224.288 148.434 224.288 148.434C224.288 148.434 221.756 153.356 217.135 151.789C217.135 151.789 220.494 159.321 220.58 161.194C220.665 163.067 222.89 168.292 222.89 168.292C222.89 168.292 223.721 172.17 228.211 171.953C228.211 171.953 234.405 173.103 235.757 171.953C237.108 170.802 238.328 169.898 238.966 169.766C239.604 169.634 240.186 168.897 240.186 168.897V163.719L237.864 158.801Z" fill="#4C4981"/>
<path opacity="0.1" d="M230.102 163.719C230.102 163.719 231.193 167.772 230.494 168.206L230.102 163.719Z" fill="black"/>
<path opacity="0.1" d="M266.395 189.648C260.594 189.833 247.809 190.065 247.239 188.58C247.111 188.202 247.043 187.807 247.039 187.408L265.992 188.405L266.395 189.648Z" fill="black"/>
<path opacity="0.1" d="M267.822 225.998C267.822 225.998 267.465 226.988 266.977 228.288C264.57 228.142 261.382 227.989 258.354 227.967C257.284 227.967 256.236 227.968 255.244 228.003C253.14 228.067 251.322 228.238 250.163 228.566C248.697 229.016 247.166 229.214 245.634 229.15C245.242 227.643 244.971 226.561 244.971 226.561C244.971 226.561 251.561 226.009 255.558 225.816L255.872 223.601L267.822 225.998Z" fill="black"/>
<path d="M272.926 210.058L272.184 211.625C272.184 211.625 272.081 212.091 271.949 212.832C271.671 214.428 271.236 217.305 271.4 219.599C271.617 222.953 270.919 228.046 270.919 228.046C270.919 228.046 254.871 226.696 250.164 228.046C245.457 229.396 243.139 228.046 243.139 228.046C243.139 228.046 243.71 222.996 242.312 220.382C241.36 218.601 240.689 210.653 240.668 205.425C240.668 203.014 240.789 201.187 241.092 200.816C242.052 199.641 246.149 187.882 246.149 187.882L247.083 187.932L249.579 188.063L263.772 188.811L266.001 188.929L266.236 189.641L272.926 210.058Z" fill="#444053"/>
<path d="M279.989 204.83L280.121 206.226C280.121 206.226 273.092 203.94 273.449 201.13C273.805 198.32 273.449 198.637 273.449 198.637L279.097 199.114L279.989 204.83Z" fill="#4C4981"/>
<path opacity="0.1" d="M279.989 204.83L280.121 206.226C280.121 206.226 273.092 203.94 273.449 201.13C273.805 198.32 273.449 198.637 273.449 198.637L279.097 199.114L279.989 204.83Z" fill="black"/>
<path opacity="0.1" d="M234.791 164.844C235.509 165.453 236.354 165.893 237.266 166.13C237.002 166.073 236.757 165.95 236.552 165.774C236.05 165.418 235.572 165.029 235.087 164.652C234.695 164.346 234.206 163.836 233.725 163.712C234.04 164.125 234.397 164.505 234.791 164.844Z" fill="black"/>
<path opacity="0.1" d="M234.898 166.678C235.124 166.933 235.307 167.223 235.44 167.536C235.665 168.423 235.652 169.353 235.401 170.232L234.274 167.519C234.078 167.056 233.882 166.593 233.646 166.151C233.543 165.962 232.894 165.175 232.969 165.011C233.169 164.548 234.688 166.418 234.898 166.678Z" fill="black"/>
<path opacity="0.1" d="M266.339 181.707C267.107 181.614 267.825 181.278 268.389 180.749C267.23 180.895 266.132 181.351 264.991 181.589C263.931 181.835 262.821 181.733 261.824 181.297C263.137 181.938 264.941 181.96 266.339 181.707Z" fill="black"/>
<path opacity="0.1" d="M263.061 173.733C262.853 173.764 262.642 173.711 262.473 173.587C261.603 173.088 260.744 172.568 259.898 172.027C259.074 171.496 258.079 170.959 257.377 170.289C259.106 171.849 260.718 173.167 263.061 173.733Z" fill="black"/>
<path opacity="0.1" d="M265.479 182.971C265.936 182.992 266.393 182.954 266.841 182.86C267.294 182.766 267.694 182.504 267.961 182.127C267.799 182.09 267.629 182.116 267.487 182.202C266.105 182.782 264.587 182.964 263.107 182.725C263.817 183.028 264.726 182.967 265.479 182.971Z" fill="black"/>
<path opacity="0.1" d="M257.221 203.192C256.313 203.465 255.38 203.648 254.436 203.737C253.701 203.771 252.965 203.756 252.232 203.694L248.666 203.47L246.883 203.356C246.672 203.356 245.813 203.356 246.237 202.932C246.451 202.725 247.642 202.857 247.949 202.846C248.541 202.827 249.135 202.817 249.732 202.814C250.912 202.814 252.096 202.814 253.277 202.886C254.6 202.95 255.901 203.049 257.221 203.192Z" fill="black"/>
<path opacity="0.1" d="M253.088 204.955C252.482 204.93 251.701 205.289 251.077 205.368C250.378 205.45 249.675 205.477 248.973 205.45C247.583 205.416 246.21 205.136 244.918 204.623C247.639 204.762 250.367 204.844 253.088 204.955Z" fill="black"/>
<path opacity="0.1" d="M245.449 206.821C245.713 206.874 245.972 206.946 246.226 207.035C247.731 207.462 249.332 207.084 250.862 206.707C250.48 207.28 249.792 207.526 249.104 207.683C247.985 207.966 246.818 208.008 245.681 207.807C245.324 207.736 244.429 207.608 244.254 207.238C243.962 206.693 245.114 206.767 245.449 206.821Z" fill="black"/>
<path opacity="0.1" d="M253.886 209.631C254.337 209.723 254.782 209.842 255.219 209.987C256.913 210.407 258.671 209.83 260.372 209.442C262.417 208.978 264.514 208.784 266.609 208.865C266.235 208.865 265.639 209.193 265.272 209.303C264.79 209.449 264.302 209.585 263.813 209.706C262.854 209.941 261.881 210.133 260.9 210.272C258.92 210.558 256.917 210.645 254.92 210.532C254.007 210.482 252.424 210.575 251.643 210.115C252.318 209.715 253.105 209.545 253.886 209.631Z" fill="black"/>
<path opacity="0.1" d="M254.526 155.92C254.526 155.92 254.611 159.93 253.959 161.76C253.752 162.33 253.431 163.38 253.081 164.559C252.7 165.866 252.283 167.33 251.962 168.477C251.641 169.623 251.427 170.393 251.427 170.393C251.427 170.393 249.954 182.373 249.572 188.081C249.572 188.181 249.572 188.284 249.551 188.381C249.53 188.701 249.494 189.036 249.44 189.381C248.592 195.051 243.696 203.794 242.052 204.492C241.539 204.727 241.071 205.048 240.668 205.443C240.668 203.032 240.789 201.205 241.092 200.834C242.052 199.659 246.149 187.9 246.149 187.9L247.083 187.95C247.062 187.786 247.048 187.594 247.04 187.426C246.966 185.158 248.025 181.675 248.025 181.675C248.025 181.675 248.634 174.705 248.634 174.403C248.634 174.1 248.11 169.217 248.11 169.217L249.159 165.3L251.166 163.897C251.416 160.873 252.011 157.202 253.434 156.201C254.147 155.644 254.715 154.925 255.093 154.103C255.374 154.142 254.861 153.893 254.861 153.893L254.526 155.92Z" fill="black"/>
<path d="M255.291 153.673C254.927 153.548 254.541 153.506 254.159 153.55C253.777 153.593 253.41 153.72 253.083 153.922C252.078 154.634 250.117 154.574 249.592 154.445C249.068 154.317 243.619 153.616 243.174 153.79C242.728 153.965 241.865 153.181 241.298 154.228C240.731 155.275 240.47 155.838 239.903 156.098C239.336 156.358 238.331 157.188 238.477 157.362C238.623 157.537 237.051 158.58 237.051 158.58L240.232 168.908C240.232 168.908 238.181 181.97 237.179 183.103C236.177 184.235 227.28 198.911 230.464 201.525C232.985 203.505 235.653 205.291 238.445 206.867C238.802 207.042 240.057 204.691 241.801 203.951C243.544 203.21 248.954 193.409 249.289 187.836C249.624 182.262 251.165 169.851 251.165 169.851C251.165 169.851 253.041 163.056 253.693 161.226C254.346 159.396 254.26 155.386 254.26 155.386L255.291 153.673Z" fill="#4C4981"/>
<path opacity="0.1" d="M272.925 210.058L272.184 211.625C272.184 211.625 272.08 212.091 271.948 212.832C271.816 212.815 271.692 212.76 271.592 212.672C270.5 211.799 264.103 205.225 263.786 199.388C263.561 195.083 263.668 191.372 263.739 189.719C263.761 189.199 263.782 188.886 263.782 188.818C263.782 188.818 268.753 182.807 268.186 180.677C267.619 178.548 266.31 167.144 266.31 167.144L266.118 165.649L265.786 163.12L264.995 157.002L265.815 157.194C265.954 157.385 266.121 157.555 266.31 157.696L267.159 163.077L270.105 166.318L270.586 186.048L269.231 189.573C269.231 189.573 268.129 189.623 266.41 189.677H266.243L272.925 210.058Z" fill="black"/>
<path d="M275.67 177.49C275.67 177.49 274.451 177.009 274.365 177.49C274.28 177.971 274.059 179.011 274.059 179.011C274.059 179.011 274.276 181.539 273.345 182.54C272.415 183.541 272.276 187.764 272.276 187.764C272.276 187.764 270.806 191.945 271.502 193.252C271.755 193.726 272.147 196.101 272.539 198.95C272.789 200.731 273.035 202.686 273.253 204.474C273.649 207.722 273.944 210.411 273.944 210.411C273.944 210.411 273.156 213.284 272.065 212.412C270.974 211.539 264.577 204.965 264.263 199.128C264.049 195.029 264.134 191.468 264.206 189.712C264.234 188.968 264.263 188.548 264.263 188.548C264.263 188.548 269.234 182.536 268.667 180.403C268.1 178.27 266.791 166.87 266.791 166.87L266.563 165.108L266.317 163.213L266.26 162.796L265.472 156.742C265.611 156.774 270.503 157.878 271.149 158.523C271.794 159.167 275.785 160.09 275.785 160.09C276.386 160.253 276.933 160.574 277.369 161.02C277.804 161.466 278.112 162.02 278.259 162.625C278.299 162.746 278.327 162.875 278.356 163.006C278.88 165.535 278.712 165.838 279.069 166.276C279.425 166.714 275.67 177.49 275.67 177.49Z" fill="#4C4981"/>
<path opacity="0.1" d="M273.282 204.471C271.499 204.114 268.853 203.292 268.913 201.476C268.967 199.777 271.014 199.164 272.565 198.947C272.814 200.721 273.06 202.683 273.282 204.471Z" fill="black"/>
<path d="M278.814 203.566C278.742 203.719 278.457 203.851 278.051 203.968C277.097 204.195 276.128 204.353 275.151 204.442C275.151 204.442 269.089 203.961 269.175 201.215C269.239 199.246 271.978 198.722 273.515 198.605C273.855 198.573 274.196 198.559 274.538 198.562C274.538 198.562 279.074 203.003 278.814 203.566Z" fill="#AE6E79"/>
<path opacity="0.1" d="M278.813 203.566C278.741 203.719 278.456 203.851 278.05 203.968C276.47 201.856 274.266 199.146 273.186 198.908L273.514 198.605C273.854 198.573 274.195 198.559 274.537 198.562C274.537 198.562 279.073 203.003 278.813 203.566Z" fill="black"/>
<path d="M277.286 165.984L279.069 166.247C279.713 167.38 280.428 168.47 281.209 169.513C281.688 170.108 281.963 170.84 281.993 171.603C281.993 171.603 284.611 175.478 285.438 175.912C286.265 176.347 287.531 179.31 287.531 179.31C287.531 179.31 289.582 180.66 289.582 182.184C289.618 183.455 289.749 184.721 289.974 185.973C290.021 186.19 289.671 188.893 288.797 190.247C287.924 191.6 287.05 194.584 287.096 195.118C287.143 195.653 284.654 198.43 283.958 199.299C283.378 200.112 282.867 200.972 282.432 201.871L280.121 206.226C280.121 206.226 275.236 199.039 273.449 198.648C273.449 198.648 275.453 196.732 276.455 196.383C277.457 196.034 278.42 193.177 278.463 192.508C278.506 191.838 279.38 189.677 280.292 189.303C281.205 188.929 281.69 188.519 281.298 187.907C280.906 187.294 281.298 186.126 281.298 186.126C281.298 186.126 278.723 182.729 278.374 180.784C278.024 178.84 275.671 177.519 275.671 177.519L274.319 174.207L277.286 165.984Z" fill="#4C4981"/>
<path opacity="0.1" d="M283.774 182.241C284.761 181.409 286.003 180.939 287.294 180.909C286.466 181.051 285.596 181.233 284.99 181.81C284.752 182.06 284.538 182.332 284.352 182.622C284.145 182.917 282.462 185.054 282.212 184.716C281.795 184.221 283.435 182.529 283.774 182.241Z" fill="black"/>
<path opacity="0.1" d="M279.822 180.179C280.089 180.156 280.345 180.062 280.564 179.908C280.783 179.753 280.956 179.543 281.067 179.299C281.279 178.808 281.411 178.286 281.456 177.754C281.583 176.862 281.763 175.978 281.994 175.107C282.063 174.935 282.093 174.75 282.08 174.565C282.067 174.38 282.012 174.2 281.919 174.039C281.823 173.761 281.694 173.495 281.534 173.249C281.213 173.605 281.12 174.434 280.988 174.912C280.824 175.503 280.675 176.098 280.532 176.692C280.457 176.977 279.865 180.179 279.822 180.179Z" fill="black"/>
<path opacity="0.1" d="M278.278 162.597C278.103 162.827 277.9 163.035 277.676 163.217C276.963 163.783 276.018 164.26 275.928 165.154C275.953 165.444 275.917 165.737 275.821 166.012C275.593 166.404 275.033 166.368 274.588 166.294C274.211 166.26 273.851 166.127 273.543 165.909C273.076 165.51 273.033 164.798 272.676 164.296C272.46 164.037 272.186 163.831 271.877 163.694C271.568 163.558 271.231 163.494 270.893 163.509C270.226 163.487 269.563 163.637 268.896 163.665C268.468 163.687 268.038 163.658 267.616 163.58C267.477 163.559 267.339 163.53 267.202 163.494C266.904 163.421 266.613 163.322 266.332 163.199C266.187 163.141 266.045 163.074 265.908 162.999C265.462 162.77 265.048 162.483 264.678 162.145C264.025 161.546 263.483 160.72 263.537 159.833C263.569 159.289 263.815 158.786 263.893 158.249C264.161 156.71 263.137 155.257 262.028 154.157C261.586 153.719 261.115 153.295 260.673 152.85C259.984 152.216 259.441 151.441 259.079 150.578C258.781 149.659 258.684 148.688 258.794 147.729C258.894 146.756 258.921 145.778 258.876 144.801C258.548 141.34 255.588 138.687 252.628 137.244L252.496 137.177C253.374 136.17 254.455 135.36 255.668 134.799C256.881 134.238 258.198 133.939 259.535 133.922C260.871 133.904 262.196 134.168 263.424 134.696C264.651 135.225 265.753 136.006 266.658 136.989C267.562 137.971 268.249 139.134 268.673 140.399C269.097 141.665 269.249 143.006 269.119 144.335C268.99 145.663 268.58 146.949 267.919 148.109C267.257 149.269 266.358 150.276 265.28 151.066C265.248 151.176 265.22 151.286 265.195 151.393C264.51 154.128 264.963 155.788 265.473 156.703C265.612 156.735 270.504 157.839 271.15 158.484C271.795 159.128 275.786 160.051 275.786 160.051C276.392 160.212 276.944 160.534 277.383 160.982C277.821 161.43 278.131 161.988 278.278 162.597Z" fill="black"/>
<path d="M251.867 134.666C252.063 134.442 252.359 134.328 252.559 134.11C253.176 133.441 252.559 132.348 252.784 131.464C253.026 130.485 254.232 130.058 255.237 130.161C256.243 130.264 257.184 130.727 258.19 130.841C259.752 131.016 261.264 130.339 262.787 129.944C264.309 129.548 266.149 129.527 267.198 130.692C268.246 131.856 268.175 133.84 269.48 134.684C270.083 135.072 270.842 135.115 271.495 135.396C272.209 135.762 272.801 136.328 273.199 137.024C274.232 138.644 274.687 140.565 274.49 142.476C274.38 143.509 274.08 144.513 273.959 145.546C273.836 146.618 273.908 147.704 274.173 148.751C274.447 149.819 275.043 150.973 276.109 151.315C276.356 151.369 276.595 151.452 276.822 151.561C277.439 151.945 277.357 152.85 277.2 153.555L276.566 156.479C277.175 156.942 278.124 156.742 278.705 157.23C278.938 157.443 279.11 157.713 279.204 158.014C279.491 158.831 279.522 159.717 279.294 160.552C279.065 161.388 278.587 162.135 277.924 162.693C277.211 163.259 276.266 163.737 276.177 164.627C276.204 164.917 276.168 165.21 276.07 165.485C275.845 165.877 275.282 165.841 274.836 165.767C274.461 165.732 274.102 165.599 273.795 165.382C273.324 164.983 273.285 164.271 272.928 163.769C272.711 163.51 272.438 163.304 272.128 163.168C271.819 163.032 271.483 162.968 271.145 162.982C270.475 162.96 269.815 163.11 269.145 163.142C267.598 163.205 266.089 162.661 264.94 161.625C264.284 161.023 263.746 160.2 263.796 159.31C263.828 158.769 264.074 158.263 264.152 157.725C264.416 156.19 263.396 154.734 262.287 153.633C261.178 152.533 259.877 151.518 259.335 150.054C258.657 148.242 259.313 146.219 259.131 144.296C258.803 140.831 255.847 138.181 252.884 136.735C252.224 136.397 251.101 135.539 251.867 134.666Z" fill="#444053"/>
<path opacity="0.1" d="M275.19 164.574C274.719 164.171 274.68 163.462 274.323 162.96C274.106 162.701 273.833 162.495 273.524 162.358C273.215 162.221 272.878 162.157 272.54 162.17C271.87 162.148 271.207 162.298 270.54 162.33C268.988 162.398 267.472 161.851 266.321 160.809C265.665 160.211 265.13 159.385 265.18 158.498C265.212 157.953 265.458 157.447 265.537 156.913C265.804 155.375 264.781 153.918 263.672 152.818C262.563 151.717 261.265 150.702 260.719 149.239C260.045 147.43 260.719 145.407 260.519 143.48C260.188 140.015 257.231 137.365 254.272 135.92C253.58 135.581 252.457 134.723 253.223 133.85C253.416 133.626 253.712 133.512 253.911 133.295C254.528 132.629 253.911 131.532 254.14 130.652C254.184 130.477 254.26 130.312 254.364 130.165C253.619 130.303 252.938 130.724 252.756 131.436C252.539 132.319 253.148 133.412 252.531 134.082C252.332 134.299 252.036 134.413 251.84 134.634C251.073 135.506 252.196 136.368 252.888 136.703C255.851 138.149 258.808 140.802 259.136 144.264C259.318 146.19 258.661 148.213 259.339 150.026C259.881 151.486 261.183 152.519 262.292 153.605C263.401 154.691 264.431 156.158 264.157 157.697C264.006 158.217 263.887 158.747 263.8 159.281C263.75 160.168 264.289 160.994 264.945 161.593C266.094 162.635 267.609 163.182 269.16 163.113C269.83 163.081 270.49 162.935 271.16 162.953C271.498 162.941 271.834 163.005 272.143 163.142C272.453 163.279 272.726 163.485 272.943 163.744C273.3 164.246 273.339 164.958 273.81 165.357C274.117 165.573 274.477 165.705 274.851 165.738C275.297 165.82 275.86 165.848 276.085 165.46C276.165 165.302 276.2 165.124 276.185 164.947C275.826 164.912 275.483 164.783 275.19 164.574Z" fill="black"/>
<path d="M223.279 143.409H198.613V119.135H223.297L223.279 143.409ZM222.922 106.81H198.97C198.97 69.0885 234.872 71.293 234.872 47.4289C234.872 34.2842 224.099 23.7536 210.937 23.7536C197.775 23.7536 187.006 35.1069 187.006 47.8028H163.07C163.06 41.5222 164.29 35.3013 166.692 29.4967C169.094 23.6921 172.619 18.418 177.066 13.977C181.513 9.53592 186.794 6.01519 192.606 3.61669C198.419 1.21819 204.648 -0.0109021 210.937 -0.000112683C237.376 -0.000112683 258.804 21.0648 258.804 47.4289C258.804 77.2688 222.905 80.6662 222.905 106.81H222.922Z" fill="white"/>
<path opacity="0.1" d="M100.255 136.179H93.8933V129.904H100.255V136.179ZM100.159 126.742H93.9896C93.9896 117.02 103.243 117.586 103.243 111.429C103.24 110.623 103.078 109.826 102.766 109.083C102.454 108.34 101.999 107.665 101.426 107.098C100.853 106.531 100.174 106.082 99.4271 105.777C98.6804 105.472 97.8809 105.317 97.0742 105.321C95.445 105.359 93.8938 106.025 92.7461 107.18C91.5985 108.336 90.9437 109.89 90.9192 111.518H84.75C84.7909 108.284 86.1026 105.196 88.4021 102.92C90.7017 100.643 93.8049 99.3606 97.0429 99.348C100.281 99.3353 103.394 100.594 105.711 102.852C108.029 105.111 109.364 108.188 109.43 111.421C109.413 119.114 100.159 119.99 100.159 126.728V126.742Z" fill="#6C63FF"/>
<path opacity="0.1" d="M148.424 179.773H142.062V173.516H148.424V179.773ZM148.331 170.339H142.162C142.162 160.613 151.416 161.183 151.416 155.026C151.413 154.22 151.251 153.423 150.939 152.68C150.627 151.938 150.171 151.263 149.598 150.697C149.025 150.13 148.346 149.681 147.6 149.376C146.853 149.072 146.053 148.917 145.247 148.922C143.611 148.951 142.051 149.615 140.896 150.773C139.741 151.93 139.083 153.491 139.06 155.125H132.891C132.932 151.892 134.243 148.804 136.543 146.528C138.842 144.251 141.946 142.968 145.183 142.956C148.421 142.943 151.535 144.202 153.852 146.46C156.169 148.719 157.505 151.796 157.571 155.029C157.582 162.721 148.331 163.601 148.331 170.339Z" fill="#6C63FF"/>
<path opacity="0.1" d="M177.716 102.6H173.105V98.0737H177.716V102.6ZM177.648 95.7589H173.177C173.177 88.7147 179.884 89.1243 179.884 84.6655C179.881 84.0819 179.764 83.5045 179.537 82.9663C179.311 82.4282 178.981 81.9398 178.566 81.5291C178.15 81.1183 177.658 80.7933 177.117 80.5726C176.576 80.3518 175.997 80.2396 175.412 80.2424C174.229 80.2663 173.101 80.7484 172.267 81.5869C171.433 82.4254 170.957 83.5548 170.941 84.7368H166.469C166.459 82.3679 167.393 80.0924 169.063 78.4107C170.734 76.729 173.005 75.7789 175.377 75.7695C177.749 75.76 180.027 76.692 181.711 78.3603C183.395 80.0287 184.347 82.2967 184.356 84.6655C184.349 90.2389 177.648 90.8764 177.648 95.7589Z" fill="#6C63FF"/>
<path opacity="0.1" d="M256.468 108.989H253.861V106.425H256.468V108.989ZM256.429 105.125H253.886C253.886 101.144 257.677 101.375 257.677 98.8537C257.677 98.5239 257.612 98.1974 257.484 97.893C257.357 97.5887 257.171 97.3126 256.936 97.0808C256.701 96.8489 256.423 96.6659 256.116 96.5423C255.81 96.4187 255.483 96.357 255.152 96.3608C254.484 96.3745 253.846 96.6469 253.375 97.1205C252.903 97.5942 252.634 98.2321 252.624 98.9H250.096C250.125 97.5839 250.668 96.3315 251.609 95.4093C252.549 94.4872 253.813 93.9683 255.131 93.9632C256.45 93.9581 257.718 94.4672 258.665 95.382C259.613 96.2968 260.166 97.545 260.205 98.8608C260.22 101.991 256.429 102.365 256.429 105.125Z" fill="#6C63FF"/>
<path opacity="0.1" d="M296.321 225.61H293.714V223.046H296.321V225.61ZM296.282 221.746H293.754C293.754 217.761 297.548 217.996 297.548 215.475C297.543 214.81 297.274 214.173 296.8 213.706C296.326 213.239 295.686 212.978 295.019 212.982C294.351 212.995 293.713 213.267 293.241 213.741C292.769 214.215 292.5 214.853 292.491 215.521H289.963C289.992 214.205 290.535 212.953 291.476 212.031C292.417 211.108 293.681 210.589 294.999 210.584C296.317 210.579 297.585 211.088 298.532 212.003C299.48 212.918 300.033 214.166 300.073 215.482C300.087 218.627 296.296 218.986 296.296 221.746H296.282Z" fill="#6C63FF"/>
</g>
<defs>
<linearGradient id="paint0_linear" x1="178.995" y1="1.74286" x2="178.995" y2="275.394" gradientUnits="userSpaceOnUse">
<stop stop-color="#FFBE2E"/>
<stop offset="1" stop-color="#F9D53D"/>
</linearGradient>
<linearGradient id="paint1_linear" x1="248.623" y1="296.315" x2="248.623" y2="129.381" gradientUnits="userSpaceOnUse">
<stop stop-color="#808080" stop-opacity="0.25"/>
<stop offset="0.54" stop-color="#808080" stop-opacity="0.12"/>
<stop offset="1" stop-color="#808080" stop-opacity="0.1"/>
</linearGradient>
<clipPath id="clip0">
<rect width="358" height="298" fill="white"/>
</clipPath>
</defs>
</svg>
